<svg width="23" height="34" viewBox="0 0 23 34" fill="none" xmlns="http://www.w3.org/2000/svg">
<path d="M8.88666 3.65365C10.8423 0.195733 15.2304 -1.02242 18.6884 0.932951L19.0058 1.12338C22.2193 3.16205 23.3037 7.38568 21.4091 10.7357L14.0849 23.6859L13.8925 24.0033C12.8833 25.5556 11.2069 26.5622 9.34759 26.7132L5.83295 26.9984L5.73236 27.0023L2.15326 33.3675C1.84201 33.921 1.14042 34.1181 0.586852 33.807C0.0334947 33.4957 -0.163483 32.7941 0.147399 32.2406L3.79193 25.7581L1.37494 21.6908C0.576042 20.3466 0.509258 18.6982 1.1806 17.3011L1.32416 17.0257L8.88666 3.65365ZM9.32416 20.641C9.3181 20.643 9.31167 20.6439 9.3056 20.6458L7.08978 24.5872L9.16205 24.4203C10.3848 24.3209 11.4789 23.6218 12.0829 22.554L14.081 19.0189L9.32416 20.641ZM3.32611 18.1576C2.91129 18.8914 2.92085 19.7913 3.3515 20.516L5.09271 23.4447L8.81244 16.8294L7.33588 11.0658L3.32611 18.1576ZM17.5566 2.9349C15.2043 1.60468 12.219 2.43336 10.8886 4.78549L8.96966 8.17709C8.97195 8.18527 8.97536 8.19324 8.97748 8.20151L10.4443 13.9281L14.5429 6.63998C14.8542 6.08646 15.5557 5.89031 16.1093 6.20151C16.6629 6.51281 16.86 7.21433 16.5488 7.76791L11.0956 17.4613C11.0686 17.523 11.0363 17.582 10.999 17.638L15.7841 16.0081L19.4072 9.60385C20.7375 7.25147 19.9089 4.26526 17.5566 2.9349Z" fill="black"/>
</svg>
