<svg width="140" height="40" viewBox="0 0 140 40" fill="none" xmlns="http://www.w3.org/2000/svg">
<path d="M8.88666 6.67642C10.8423 3.2185 15.2304 2.00035 18.6884 3.95571L19.0058 4.14614C22.2193 6.18481 23.3037 10.4084 21.4091 13.7584L14.0849 26.7086L13.8925 27.026C12.8833 28.5784 11.2069 29.585 9.34759 29.736L5.83295 30.0211L5.73236 30.025L2.15326 36.3903C1.84201 36.9438 1.14042 37.1408 0.586852 36.8297C0.0334948 36.5185 -0.163483 35.8168 0.147399 35.2633L3.79193 28.7809L1.37494 24.7135C0.576046 23.3694 0.50926 21.721 1.1806 20.3239L1.32416 20.0485L8.88666 6.67642ZM9.32416 23.6637C9.3181 23.6658 9.31167 23.6667 9.3056 23.6686L7.08978 27.61L9.16205 27.443C10.3848 27.3437 11.4789 26.6446 12.0829 25.5768L14.081 22.0417L9.32416 23.6637ZM3.32611 21.1803C2.91129 21.9141 2.92085 22.8141 3.3515 23.5387L5.09271 26.4674L8.81244 19.8522L7.33588 14.0885L3.32611 21.1803ZM17.5566 5.95767C15.2043 4.62745 12.219 5.45613 10.8886 7.80825L8.96966 11.1999C8.97195 11.208 8.97536 11.216 8.97748 11.2243L10.4443 16.9508L14.5429 9.66275C14.8542 9.10923 15.5557 8.91307 16.1093 9.22427C16.6629 9.53558 16.86 10.2371 16.5488 10.7907L11.0956 20.484C11.0686 20.5458 11.0363 20.6047 10.999 20.6608L15.7841 19.0309L19.4072 12.6266C20.7375 10.2742 19.9089 7.28802 17.5566 5.95767Z" fill="black"/>
<path d="M39.4583 11.0006C38.9208 11.0213 38.4867 11.1143 38.156 11.2797C37.8459 11.445 37.6185 11.7138 37.4738 12.0859C37.3498 12.4373 37.2878 12.9437 37.2878 13.6052V21.915C37.2878 23.1553 37.4015 24.2405 37.6289 25.1707C37.8769 26.0803 38.2283 26.8451 38.6831 27.4652C39.1379 28.0854 39.696 28.5505 40.3575 28.8605C41.0396 29.1706 41.8251 29.3256 42.714 29.3256C43.9543 29.367 44.9982 29.1086 45.8457 28.5505C46.7139 27.9923 47.365 27.1758 47.7991 26.1009C48.2332 25.026 48.4503 23.7134 48.4503 22.1631L48.4813 13.8532C48.4813 13.3365 48.4916 12.8403 48.5123 12.3649C48.5329 11.8895 48.5639 11.5174 48.6053 11.2487C48.2539 11.2693 47.8508 11.29 47.396 11.3107C46.9413 11.3107 46.5795 11.321 46.3108 11.3417V9.29524H53.0083V11.0006C52.4501 11.0213 52.0057 11.1246 51.675 11.3107C51.3649 11.476 51.1479 11.7758 51.0238 12.2099C50.8998 12.644 50.8378 13.2641 50.8378 14.0703L50.8068 21.6359C50.8068 23.269 50.6104 24.7056 50.2176 25.9459C49.8456 27.1655 49.2874 28.1887 48.5433 29.0156C47.7991 29.8424 46.8999 30.4625 45.8457 30.876C44.7915 31.2894 43.5925 31.4961 42.2489 31.4961C40.5332 31.4961 39.0965 31.2584 37.939 30.783C36.802 30.3075 35.8925 29.6254 35.2104 28.7365C34.5489 27.827 34.0734 26.7624 33.784 25.5428C33.5153 24.3025 33.381 22.9176 33.381 21.3879V14.2873C33.381 13.7499 33.3913 13.1918 33.412 12.613C33.4533 12.0135 33.4843 11.5587 33.505 11.2487C33.1536 11.2693 32.7505 11.29 32.2957 11.3107C31.8409 11.3107 31.4792 11.321 31.2105 11.3417V9.29524H39.4583V11.0006ZM55.4665 31V29.3566C56.066 29.3566 56.4897 29.2326 56.7378 28.9846C56.9858 28.7158 57.1409 28.3438 57.2029 27.8683C57.2649 27.3929 57.2959 26.8554 57.2959 26.256V20.4267C57.2959 20.0546 57.3063 19.6618 57.3269 19.2484C57.3476 18.835 57.3786 18.4112 57.4199 17.9771C57.0892 17.9978 56.7068 18.0185 56.2727 18.0392C55.8593 18.0598 55.5182 18.0805 55.2495 18.1012V16.0857C56.1797 16.0857 56.9445 16.0444 57.544 15.9617C58.1434 15.8583 58.6085 15.7343 58.9393 15.5896C59.27 15.4449 59.5077 15.3106 59.6524 15.1865H60.9547C60.9961 15.4139 61.0167 15.6 61.0167 15.7447C61.0167 15.8894 61.0271 16.0444 61.0477 16.2098C61.0684 16.3545 61.0994 16.5715 61.1408 16.8609C61.5542 16.5095 62.0296 16.1994 62.5671 15.9307C63.1252 15.6413 63.6833 15.4139 64.2414 15.2485C64.7996 15.0832 65.3163 15.0005 65.7918 15.0005C67.6522 15.0005 68.9855 15.5483 69.7917 16.6438C70.5978 17.7394 71.0009 19.4861 71.0009 21.884V26.566C71.0009 26.8968 70.9906 27.2999 70.9699 27.7753C70.9699 28.2301 70.9389 28.6745 70.8769 29.1086C71.2283 29.0672 71.5901 29.0466 71.9621 29.0466C72.3342 29.0259 72.6443 29.0156 72.8923 29.0156V31H65.3577V29.3566C65.9572 29.3566 66.3809 29.2326 66.629 28.9846C66.8977 28.7158 67.0631 28.3438 67.1251 27.8683C67.1871 27.3929 67.2181 26.8554 67.2181 26.256L67.1871 21.853C67.1871 20.3647 66.9597 19.2588 66.5049 18.5353C66.0708 17.7911 65.3474 17.419 64.3345 17.419C63.735 17.4397 63.1459 17.5844 62.5671 17.8531C61.9883 18.1218 61.5025 18.4629 61.1098 18.8763C61.1304 19.1244 61.1408 19.3828 61.1408 19.6515C61.1408 19.9202 61.1408 20.189 61.1408 20.4577L61.1098 26.566C61.1098 26.8968 61.0994 27.2999 61.0787 27.7753C61.0787 28.2301 61.0477 28.6745 60.9857 29.1086C61.3165 29.0672 61.6679 29.0466 62.04 29.0466C62.4327 29.0259 62.7531 29.0156 63.0012 29.0156V31H55.4665ZM75.4327 29.3566C76.0322 29.3566 76.4559 29.2326 76.704 28.9846C76.9727 28.7158 77.1278 28.3438 77.1691 27.8683C77.2311 27.3929 77.2621 26.8554 77.2621 26.256V12.861C77.2621 12.5096 77.2725 12.1272 77.2931 11.7138C77.3138 11.2797 77.3448 10.8352 77.3861 10.3805C77.0347 10.4011 76.6523 10.4218 76.2389 10.4425C75.8255 10.4632 75.4741 10.4838 75.1847 10.5045V8.48906C76.1355 8.48906 76.9107 8.44772 77.5102 8.36503C78.1303 8.26168 78.6057 8.13765 78.9365 7.99295C79.2879 7.84825 79.5359 7.71389 79.6806 7.58986H81.076L81.107 26.566C81.107 26.8968 81.0966 27.2999 81.076 27.7753C81.0553 28.2301 81.0139 28.6745 80.9519 29.1086C81.3033 29.0672 81.6651 29.0466 82.0372 29.0466C82.4092 29.0259 82.7193 29.0156 82.9674 29.0156V31H75.4327V29.3566ZM93.6904 31.4961C92.2227 31.4961 90.8894 31.1757 89.6905 30.5349C88.4916 29.8734 87.5407 28.9536 86.8379 27.7753C86.1557 26.5764 85.8147 25.1811 85.8147 23.5894C85.8147 21.915 86.1661 20.4267 86.8689 19.1244C87.5717 17.8221 88.5123 16.8092 89.6905 16.0857C90.8894 15.3622 92.2021 15.0005 93.6284 15.0005C95.096 15.0005 96.419 15.3312 97.5973 15.9927C98.7755 16.6542 99.7057 17.5741 100.388 18.7523C101.091 19.9306 101.442 21.3259 101.442 22.9382C101.442 24.6333 101.101 26.1319 100.419 27.4342C99.7574 28.7158 98.8375 29.7184 97.6593 30.4419C96.5017 31.1447 95.1787 31.4961 93.6904 31.4961ZM93.8454 29.6047C94.7756 29.6047 95.4888 29.3153 95.9849 28.7365C96.481 28.1577 96.8221 27.4239 97.0081 26.535C97.2148 25.6255 97.3182 24.6953 97.3182 23.7444C97.3182 22.9382 97.2458 22.1217 97.1011 21.2949C96.9771 20.468 96.7704 19.7239 96.481 19.0624C96.1916 18.3802 95.8092 17.8428 95.3338 17.45C94.8583 17.0366 94.2795 16.8299 93.5974 16.8299C92.6878 16.8506 91.9643 17.1503 91.4269 17.7291C90.8894 18.3079 90.4967 19.0417 90.2486 19.9306C90.0213 20.8194 89.9076 21.76 89.9076 22.7522C89.9076 23.8684 90.0419 24.964 90.3107 26.0389C90.5794 27.0931 91.0031 27.9613 91.5819 28.6435C92.1607 29.305 92.9152 29.6254 93.8454 29.6047ZM113.636 31C113.574 30.6899 113.533 30.4315 113.512 30.2248C113.512 29.9974 113.502 29.7391 113.481 29.4497C112.778 30.1525 112.024 30.6693 111.217 31C110.432 31.3307 109.615 31.4961 108.768 31.4961C107.362 31.4961 106.277 31.1137 105.512 30.3489C104.768 29.584 104.396 28.6435 104.396 27.5272C104.396 26.535 104.665 25.6978 105.202 25.0157C105.74 24.3129 106.442 23.7444 107.311 23.3103C108.179 22.8555 109.14 22.5145 110.194 22.2871C111.248 22.039 112.292 21.9047 113.326 21.884V20.1786C113.326 19.5792 113.254 19.0314 113.109 18.5353C112.985 18.0185 112.747 17.6154 112.396 17.326C112.044 17.0159 111.528 16.8609 110.845 16.8609C110.391 16.8816 109.926 16.9849 109.45 17.171C108.995 17.3363 108.634 17.6051 108.365 17.9771C108.53 18.1632 108.634 18.3699 108.675 18.5973C108.716 18.804 108.737 18.99 108.737 19.1554C108.737 19.5275 108.592 19.9202 108.303 20.3337C108.013 20.7264 107.548 20.9125 106.908 20.8918C106.349 20.8711 105.915 20.6747 105.605 20.3027C105.316 19.9306 105.171 19.4861 105.171 18.9694C105.171 18.1839 105.45 17.5017 106.008 16.9229C106.587 16.3234 107.362 15.8583 108.334 15.5276C109.305 15.1762 110.391 15.0005 111.59 15.0005C113.367 15.0005 114.732 15.4656 115.682 16.3958C116.633 17.326 117.098 18.8143 117.078 20.8608C117.078 21.5843 117.078 22.2457 117.078 22.8452C117.078 23.424 117.067 24.0131 117.047 24.6126C117.047 25.1914 117.047 25.8425 117.047 26.566C117.047 26.8761 117.036 27.2688 117.016 27.7443C116.995 28.1991 116.964 28.6538 116.923 29.1086C117.295 29.0672 117.667 29.0466 118.039 29.0466C118.432 29.0259 118.752 29.0052 119 28.9846V31H113.636ZM113.295 23.7134C112.675 23.7547 112.065 23.8581 111.466 24.0235C110.866 24.1682 110.329 24.3749 109.853 24.6436C109.378 24.9123 108.995 25.2534 108.706 25.6668C108.437 26.0596 108.313 26.5143 108.334 27.0311C108.355 27.6719 108.561 28.1474 108.954 28.4574C109.347 28.7468 109.801 28.8915 110.318 28.8915C110.918 28.8915 111.455 28.7675 111.931 28.5195C112.427 28.2714 112.882 27.9407 113.295 27.5272C113.295 27.3205 113.295 27.1035 113.295 26.8761C113.295 26.6487 113.295 26.4213 113.295 26.1939C113.295 25.9045 113.295 25.5428 113.295 25.1087C113.295 24.6746 113.295 24.2095 113.295 23.7134ZM128.038 31.4961C126.798 31.4961 125.692 31.1757 124.72 30.5349C123.749 29.8941 122.984 28.9846 122.426 27.8063C121.888 26.628 121.62 25.2431 121.62 23.6514C121.62 21.977 121.951 20.4887 122.612 19.1864C123.273 17.8841 124.183 16.8609 125.341 16.1167C126.519 15.3726 127.873 15.0005 129.402 15.0005C130.002 15.0005 130.56 15.0728 131.077 15.2175C131.614 15.3416 132.079 15.4863 132.472 15.6516V12.892C132.472 12.582 132.472 12.1995 132.472 11.7448C132.493 11.29 132.524 10.8352 132.565 10.3805C132.234 10.4011 131.852 10.4218 131.418 10.4425C131.004 10.4632 130.653 10.4838 130.364 10.5045V8.48906C131.315 8.48906 132.09 8.44772 132.689 8.36503C133.289 8.26168 133.754 8.13765 134.085 7.99295C134.436 7.84825 134.684 7.71389 134.829 7.58986H136.255V26.566C136.255 26.8761 136.245 27.2688 136.224 27.7443C136.203 28.1991 136.172 28.6538 136.131 29.1086C136.482 29.0672 136.844 29.0466 137.216 29.0466C137.609 29.0259 137.94 29.0052 138.208 28.9846V31H132.813C132.772 30.7519 132.731 30.5039 132.689 30.2558C132.669 29.9871 132.638 29.7391 132.596 29.5117C131.955 30.1938 131.253 30.6899 130.488 31C129.723 31.3307 128.906 31.4961 128.038 31.4961ZM129.495 29.1086C130.074 29.1086 130.632 28.9536 131.17 28.6435C131.707 28.3127 132.141 27.9097 132.472 27.4342C132.451 27.1448 132.441 26.8554 132.441 26.566C132.441 26.256 132.441 25.9459 132.441 25.6358L132.472 17.6981C132.162 17.45 131.769 17.264 131.294 17.14C130.818 16.9953 130.333 16.9229 129.837 16.9229C128.865 16.9436 128.069 17.2537 127.449 17.8531C126.85 18.4319 126.405 19.1967 126.116 20.1476C125.847 21.0985 125.723 22.1321 125.744 23.2483C125.744 24.2612 125.878 25.2121 126.147 26.1009C126.415 26.9898 126.819 27.7133 127.356 28.2714C127.914 28.8295 128.627 29.1086 129.495 29.1086Z" fill="black"/>
</svg>
